<?xml version="1.0" encoding="utf-8"?>
 <!DOCTYPE svg PUBLIC "-//W3C//DTD SVG 20010904//EN" "http://www.w3.org/TR/2001/REC-SVG-20010904/DTD/svg10.dtd">
<svg xmlns="http://www.w3.org/2000/svg" xmlns:xlink="http://www.w3.org/1999/xlink" viewBox="-5 -5 35 35" class="w-full bg-white" url="https://qr-ng.com" correct_level="medium" content_point_type="circle" positioning_point_type="planet" positioning_point_color="#000000" content_point_scale="0" content_point_opacity="1" content_point_color="#000000"><circle opacity="1" r="0.22396240569272974" fill="#000000" cx="8.5" cy="0.5"></circle><circle opacity="1" r="0.3982977537722908" fill="#000000" cx="9.5" cy="0.5"></circle><circle opacity="1" r="0.34137024176954733" fill="#000000" cx="12.5" cy="0.5"></circle><circle opacity="1" r="0.40858110425240046" fill="#000000" cx="13.5" cy="0.5"></circle><circle opacity="1" r="0.4368130572702331" fill="#000000" cx="14.5" cy="0.5"></circle><circle opacity="1" r="0.17220807613168723" fill="#000000" cx="15.5" cy="0.5"></circle><circle opacity="1" r="0.281278506515775" fill="#000000" cx="16.5" cy="0.5"></circle><circle opacity="1" r="0.4453515089163237" fill="#000000" cx="11.5" cy="1.5"></circle><circle opacity="1" r="0.48834683641975307" fill="#000000" cx="13.5" cy="1.5"></circle><circle opacity="1" r="0.33788794581618653" fill="#000000" cx="10.5" cy="2.5"></circle><circle opacity="1" r="0.21974644204389573" fill="#000000" cx="12.5" cy="2.5"></circle><circle opacity="1" r="0.38561985596707815" fill="#000000" cx="13.5" cy="2.5"></circle><circle opacity="1" r="0.37424275548696845" fill="#000000" cx="14.5" cy="2.5"></circle><circle opacity="1" r="0.25583118998628257" fill="#000000" cx="16.5" cy="2.5"></circle><circle fill="#000000" cx="3.5" cy="3.5" r="1.5"></circle><circle fill="none" stroke-width="0.15" stroke-dasharray="0.5,0.5" stroke="#000000" cx="3.5" cy="3.5" r="3"></circle><circle fill="#000000" cx="6.5" cy="3.5" r="0.5"></circle><circle fill="#000000" cx="0.5" cy="3.5" r="0.5"></circle><circle fill="#000000" cx="3.5" cy="6.5" r="0.5"></circle><circle fill="#000000" cx="3.5" cy="0.5" r="0.5"></circle><circle opacity="1" r="0.3598604681069959" fill="#000000" cx="9.5" cy="3.5"></circle><circle opacity="1" r="0.18617626886145405" fill="#000000" cx="10.5" cy="3.5"></circle><circle opacity="1" r="0.3494390860768175" fill="#000000" cx="11.5" cy="3.5"></circle><circle opacity="1" r="0.2069020061728395" fill="#000000" cx="16.5" cy="3.5"></circle><circle fill="#000000" cx="21.5" cy="3.5" r="1.5"></circle><circle fill="none" stroke-width="0.15" stroke-dasharray="0.5,0.5" stroke="#000000" cx="21.5" cy="3.5" r="3"></circle><circle fill="#000000" cx="24.5" cy="3.5" r="0.5"></circle><circle fill="#000000" cx="18.5" cy="3.5" r="0.5"></circle><circle fill="#000000" cx="21.5" cy="6.5" r="0.5"></circle><circle fill="#000000" cx="21.5" cy="0.5" r="0.5"></circle><circle opacity="1" r="0.2695218192729767" fill="#000000" cx="11.5" cy="4.5"></circle><circle opacity="1" r="0.29640346364883396" fill="#000000" cx="15.5" cy="4.5"></circle><circle opacity="1" r="0.4225778034979424" fill="#000000" cx="16.5" cy="5.5"></circle><circle opacity="1" r="0.42011274005486965" fill="#000000" cx="8.5" cy="6.5"></circle><circle opacity="1" r="0.24255765603566526" fill="#000000" cx="10.5" cy="6.5"></circle><circle opacity="1" r="0.4527211934156379" fill="#000000" cx="12.5" cy="6.5"></circle><circle opacity="1" r="0.43378236454046637" fill="#000000" cx="14.5" cy="6.5"></circle><circle opacity="1" r="0.3337349965706447" fill="#000000" cx="16.5" cy="6.5"></circle><circle opacity="1" r="0.44316550925925924" fill="#000000" cx="12.5" cy="7.5"></circle><circle opacity="1" r="0.4563640260631001" fill="#000000" cx="13.5" cy="7.5"></circle><circle opacity="1" r="0.36576881858710564" fill="#000000" cx="14.5" cy="7.5"></circle><circle opacity="1" r="0.1897440843621399" fill="#000000" cx="16.5" cy="7.5"></circle><circle opacity="1" r="0.2836910579561042" fill="#000000" cx="1.5" cy="8.5"></circle><circle opacity="1" r="0.4844924554183814" fill="#000000" cx="2.5" cy="8.5"></circle><circle opacity="1" r="0.18829025205761316" fill="#000000" cx="3.5" cy="8.5"></circle><circle opacity="1" r="0.4115967935528121" fill="#000000" cx="6.5" cy="8.5"></circle><circle opacity="1" r="0.48573924039780525" fill="#000000" cx="7.5" cy="8.5"></circle><circle opacity="1" r="0.23463734567901234" fill="#000000" cx="8.5" cy="8.5"></circle><circle opacity="1" r="0.28591456618655686" fill="#000000" cx="9.5" cy="8.5"></circle><circle opacity="1" r="0.16534250685871055" fill="#000000" cx="11.5" cy="8.5"></circle><circle opacity="1" r="0.47461869855967076" fill="#000000" cx="12.5" cy="8.5"></circle><circle opacity="1" r="0.40247770919067216" fill="#000000" cx="13.5" cy="8.5"></circle><circle opacity="1" r="0.3691355881344307" fill="#000000" cx="17.5" cy="8.5"></circle><circle opacity="1" r="0.3540676440329218" fill="#000000" cx="24.5" cy="8.5"></circle><circle opacity="1" r="0.20711955589849107" fill="#000000" cx="0.5" cy="9.5"></circle><circle opacity="1" r="0.19295181755829904" fill="#000000" cx="4.5" cy="9.5"></circle><circle opacity="1" r="0.36881751543209873" fill="#000000" cx="5.5" cy="9.5"></circle><circle opacity="1" r="0.19567343964334705" fill="#000000" cx="7.5" cy="9.5"></circle><circle opacity="1" r="0.4826245284636488" fill="#000000" cx="8.5" cy="9.5"></circle><circle opacity="1" r="0.31470164609053497" fill="#000000" cx="15.5" cy="9.5"></circle><circle opacity="1" r="0.16397269375857337" fill="#000000" cx="17.5" cy="9.5"></circle><circle opacity="1" r="0.3339870541838134" fill="#000000" cx="20.5" cy="9.5"></circle><circle opacity="1" r="0.33755336934156377" fill="#000000" cx="21.5" cy="9.5"></circle><circle opacity="1" r="0.2578506515775034" fill="#000000" cx="23.5" cy="9.5"></circle><circle opacity="1" r="0.24287272805212617" fill="#000000" cx="24.5" cy="9.5"></circle><circle opacity="1" r="0.23320601851851852" fill="#000000" cx="1.5" cy="10.5"></circle><circle opacity="1" r="0.27314064643347047" fill="#000000" cx="3.5" cy="10.5"></circle><circle opacity="1" r="0.35511488340192043" fill="#000000" cx="4.5" cy="10.5"></circle><circle opacity="1" r="0.49749292695473246" fill="#000000" cx="6.5" cy="10.5"></circle><circle opacity="1" r="0.35567601165980794" fill="#000000" cx="7.5" cy="10.5"></circle><circle opacity="1" r="0.4665468535665295" fill="#000000" cx="8.5" cy="10.5"></circle><circle opacity="1" r="0.22624742798353908" fill="#000000" cx="9.5" cy="10.5"></circle><circle opacity="1" r="0.3012900805898491" fill="#000000" cx="12.5" cy="10.5"></circle><circle opacity="1" r="0.37300197187928663" fill="#000000" cx="14.5" cy="10.5"></circle><circle opacity="1" r="0.2653028549382716" fill="#000000" cx="19.5" cy="10.5"></circle><circle opacity="1" r="0.2558161865569273" fill="#000000" cx="22.5" cy="10.5"></circle><circle opacity="1" r="0.22031357167352536" fill="#000000" cx="23.5" cy="10.5"></circle><circle opacity="1" r="0.4104925411522633" fill="#000000" cx="24.5" cy="10.5"></circle><circle opacity="1" r="0.36508766289437583" fill="#000000" cx="0.5" cy="11.5"></circle><circle opacity="1" r="0.15431498628257886" fill="#000000" cx="3.5" cy="11.5"></circle><circle opacity="1" r="0.4576498199588477" fill="#000000" cx="4.5" cy="11.5"></circle><circle opacity="1" r="0.42493784293552805" fill="#000000" cx="7.5" cy="11.5"></circle><circle opacity="1" r="0.3208395490397805" fill="#000000" cx="11.5" cy="11.5"></circle><circle opacity="1" r="0.20260802469135802" fill="#000000" cx="12.5" cy="11.5"></circle><circle opacity="1" r="0.2312000600137174" fill="#000000" cx="14.5" cy="11.5"></circle><circle opacity="1" r="0.16572059327846364" fill="#000000" cx="15.5" cy="11.5"></circle><circle opacity="1" r="0.4912004886831276" fill="#000000" cx="16.5" cy="11.5"></circle><circle opacity="1" r="0.27970764746227705" fill="#000000" cx="18.5" cy="11.5"></circle><circle opacity="1" r="0.1847914523319616" fill="#000000" cx="22.5" cy="11.5"></circle><circle opacity="1" r="0.4192605452674897" fill="#000000" cx="23.5" cy="11.5"></circle><circle opacity="1" r="0.36629393861454046" fill="#000000" cx="2.5" cy="12.5"></circle><circle opacity="1" r="0.17388545953360768" fill="#000000" cx="4.5" cy="12.5"></circle><circle opacity="1" r="0.4826215277777778" fill="#000000" cx="6.5" cy="12.5"></circle><circle opacity="1" r="0.28679226680384085" fill="#000000" cx="8.5" cy="12.5"></circle><circle opacity="1" r="0.27883594821673524" fill="#000000" cx="9.5" cy="12.5"></circle><circle opacity="1" r="0.47711676954732507" fill="#000000" cx="10.5" cy="12.5"></circle><circle opacity="1" r="0.18703596536351164" fill="#000000" cx="11.5" cy="12.5"></circle><circle opacity="1" r="0.2954762517146776" fill="#000000" cx="12.5" cy="12.5"></circle><circle opacity="1" r="0.198579603909465" fill="#000000" cx="14.5" cy="12.5"></circle><circle opacity="1" r="0.21285836762688615" fill="#000000" cx="17.5" cy="12.5"></circle><circle opacity="1" r="0.3696397033607681" fill="#000000" cx="19.5" cy="12.5"></circle><circle opacity="1" r="0.49284336419753083" fill="#000000" cx="20.5" cy="12.5"></circle><circle opacity="1" r="0.16009280692729766" fill="#000000" cx="22.5" cy="12.5"></circle><circle opacity="1" r="0.2971596364883402" fill="#000000" cx="1.5" cy="13.5"></circle><circle opacity="1" r="0.45574138374485595" fill="#000000" cx="2.5" cy="13.5"></circle><circle opacity="1" r="0.17457261659807954" fill="#000000" cx="9.5" cy="13.5"></circle><circle opacity="1" r="0.22386938443072701" fill="#000000" cx="10.5" cy="13.5"></circle><circle opacity="1" r="0.23310699588477365" fill="#000000" cx="11.5" cy="13.5"></circle><circle opacity="1" r="0.40213112997256517" fill="#000000" cx="12.5" cy="13.5"></circle><circle opacity="1" r="0.295602280521262" fill="#000000" cx="17.5" cy="13.5"></circle><circle opacity="1" r="0.32077353395061725" fill="#000000" cx="19.5" cy="13.5"></circle><circle opacity="1" r="0.28860168038408773" fill="#000000" cx="24.5" cy="13.5"></circle><circle opacity="1" r="0.3081916580932784" fill="#000000" cx="0.5" cy="14.5"></circle><circle opacity="1" r="0.16457433127572016" fill="#000000" cx="1.5" cy="14.5"></circle><circle opacity="1" r="0.3298176011659808" fill="#000000" cx="6.5" cy="14.5"></circle><circle opacity="1" r="0.40747085048010967" fill="#000000" cx="7.5" cy="14.5"></circle><circle opacity="1" r="0.2603427211934156" fill="#000000" cx="10.5" cy="14.5"></circle><circle opacity="1" r="0.3216122256515775" fill="#000000" cx="17.5" cy="14.5"></circle><circle opacity="1" r="0.38927319101508917" fill="#000000" cx="20.5" cy="14.5"></circle><circle opacity="1" r="0.40391203703703704" fill="#000000" cx="21.5" cy="14.5"></circle><circle opacity="1" r="0.4098188871742112" fill="#000000" cx="23.5" cy="14.5"></circle><circle opacity="1" r="0.39943201303155007" fill="#000000" cx="24.5" cy="14.5"></circle><circle opacity="1" r="0.39111561213991763" fill="#000000" cx="0.5" cy="15.5"></circle><circle opacity="1" r="0.39027091906721534" fill="#000000" cx="2.5" cy="15.5"></circle><circle opacity="1" r="0.23378064986282576" fill="#000000" cx="3.5" cy="15.5"></circle><circle opacity="1" r="0.3677867798353909" fill="#000000" cx="7.5" cy="15.5"></circle><circle opacity="1" r="0.40880165466392315" fill="#000000" cx="9.5" cy="15.5"></circle><circle opacity="1" r="0.3881524348422496" fill="#000000" cx="10.5" cy="15.5"></circle><circle opacity="1" r="0.47975887345679014" fill="#000000" cx="11.5" cy="15.5"></circle><circle opacity="1" r="0.26124442729766806" fill="#000000" cx="12.5" cy="15.5"></circle><circle opacity="1" r="0.308380701303155" fill="#000000" cx="13.5" cy="15.5"></circle><circle opacity="1" r="0.17286522633744855" fill="#000000" cx="14.5" cy="15.5"></circle><circle opacity="1" r="0.4434325703017833" fill="#000000" cx="15.5" cy="15.5"></circle><circle opacity="1" r="0.49029878257887516" fill="#000000" cx="20.5" cy="15.5"></circle><circle opacity="1" r="0.2929391718106996" fill="#000000" cx="21.5" cy="15.5"></circle><circle opacity="1" r="0.40119941700960216" fill="#000000" cx="0.5" cy="16.5"></circle><circle opacity="1" r="0.37974001200274343" fill="#000000" cx="1.5" cy="16.5"></circle><circle opacity="1" r="0.2858140432098765" fill="#000000" cx="2.5" cy="16.5"></circle><circle opacity="1" r="0.28037830075445813" fill="#000000" cx="3.5" cy="16.5"></circle><circle opacity="1" r="0.47253772290809326" fill="#000000" cx="4.5" cy="16.5"></circle><circle opacity="1" r="0.29732317386831275" fill="#000000" cx="5.5" cy="16.5"></circle><circle opacity="1" r="0.22680255486968448" fill="#000000" cx="6.5" cy="16.5"></circle><circle opacity="1" r="0.2145252486282579" fill="#000000" cx="7.5" cy="16.5"></circle><circle opacity="1" r="0.4732998971193415" fill="#000000" cx="10.5" cy="16.5"></circle><circle opacity="1" r="0.3863055126886145" fill="#000000" cx="12.5" cy="16.5"></circle><circle opacity="1" r="0.4515359224965706" fill="#000000" cx="13.5" cy="16.5"></circle><circle opacity="1" r="0.25957754629629626" fill="#000000" cx="16.5" cy="16.5"></circle><circle opacity="1" r="0.2047205075445816" fill="#000000" cx="17.5" cy="16.5"></circle><circle opacity="1" r="0.27940307784636487" fill="#000000" cx="18.5" cy="16.5"></circle><circle opacity="1" r="0.15198945473251027" fill="#000000" cx="19.5" cy="16.5"></circle><circle opacity="1" r="0.17788087277091907" fill="#000000" cx="20.5" cy="16.5"></circle><circle opacity="1" r="0.19396004801097394" fill="#000000" cx="23.5" cy="16.5"></circle><circle opacity="1" r="0.29636895576131683" fill="#000000" cx="24.5" cy="16.5"></circle><circle opacity="1" r="0.4516199417009602" fill="#000000" cx="8.5" cy="17.5"></circle><circle opacity="1" r="0.34104016632373113" fill="#000000" cx="9.5" cy="17.5"></circle><circle opacity="1" r="0.4885493827160494" fill="#000000" cx="12.5" cy="17.5"></circle><circle opacity="1" r="0.47177104766803835" fill="#000000" cx="14.5" cy="17.5"></circle><circle opacity="1" r="0.16647676611796983" fill="#000000" cx="15.5" cy="17.5"></circle><circle opacity="1" r="0.17436406893004114" fill="#000000" cx="16.5" cy="17.5"></circle><circle opacity="1" r="0.3841675240054869" fill="#000000" cx="20.5" cy="17.5"></circle><circle opacity="1" r="0.16610318072702332" fill="#000000" cx="21.5" cy="17.5"></circle><circle opacity="1" r="0.1996463477366255" fill="#000000" cx="23.5" cy="17.5"></circle><circle opacity="1" r="0.3346427040466392" fill="#000000" cx="24.5" cy="17.5"></circle><circle opacity="1" r="0.4857527434842249" fill="#000000" cx="8.5" cy="18.5"></circle><circle opacity="1" r="0.3602295524691358" fill="#000000" cx="10.5" cy="18.5"></circle><circle opacity="1" r="0.46902992112482855" fill="#000000" cx="12.5" cy="18.5"></circle><circle opacity="1" r="0.22125878772290808" fill="#000000" cx="15.5" cy="18.5"></circle><circle opacity="1" r="0.4519470164609053" fill="#000000" cx="16.5" cy="18.5"></circle><circle opacity="1" r="0.2331625085733882" fill="#000000" cx="18.5" cy="18.5"></circle><circle opacity="1" r="0.21845464677640603" fill="#000000" cx="20.5" cy="18.5"></circle><circle opacity="1" r="0.2706320730452675" fill="#000000" cx="21.5" cy="18.5"></circle><circle opacity="1" r="0.4728737997256516" fill="#000000" cx="9.5" cy="19.5"></circle><circle opacity="1" r="0.2731736539780521" fill="#000000" cx="10.5" cy="19.5"></circle><circle opacity="1" r="0.31211805555555555" fill="#000000" cx="13.5" cy="19.5"></circle><circle opacity="1" r="0.28399712791495196" fill="#000000" cx="14.5" cy="19.5"></circle><circle opacity="1" r="0.1812491426611797" fill="#000000" cx="15.5" cy="19.5"></circle><circle opacity="1" r="0.37223829732510283" fill="#000000" cx="16.5" cy="19.5"></circle><circle opacity="1" r="0.16236582647462278" fill="#000000" cx="20.5" cy="19.5"></circle><circle opacity="1" r="0.43851444615912205" fill="#000000" cx="23.5" cy="19.5"></circle><circle opacity="1" r="0.24682613168724277" fill="#000000" cx="9.5" cy="20.5"></circle><circle opacity="1" r="0.2538132287379973" fill="#000000" cx="14.5" cy="20.5"></circle><circle opacity="1" r="0.4908028978052126" fill="#000000" cx="16.5" cy="20.5"></circle><circle opacity="1" r="0.43171489197530855" fill="#000000" cx="17.5" cy="20.5"></circle><circle opacity="1" r="0.35417266803840874" fill="#000000" cx="18.5" cy="20.5"></circle><circle opacity="1" r="0.4839478309327846" fill="#000000" cx="19.5" cy="20.5"></circle><circle opacity="1" r="0.37273791152263375" fill="#000000" cx="20.5" cy="20.5"></circle><circle opacity="1" r="0.25927747770919063" fill="#000000" cx="23.5" cy="20.5"></circle><circle fill="#000000" cx="3.5" cy="21.5" r="1.5"></circle><circle fill="none" stroke-width="0.15" stroke-dasharray="0.5,0.5" stroke="#000000" cx="3.5" cy="21.5" r="3"></circle><circle fill="#000000" cx="6.5" cy="21.5" r="0.5"></circle><circle fill="#000000" cx="0.5" cy="21.5" r="0.5"></circle><circle fill="#000000" cx="3.5" cy="24.5" r="0.5"></circle><circle fill="#000000" cx="3.5" cy="18.5" r="0.5"></circle><circle opacity="1" r="0.21378257887517146" fill="#000000" cx="8.5" cy="21.5"></circle><circle opacity="1" r="0.2157285236625514" fill="#000000" cx="9.5" cy="21.5"></circle><circle opacity="1" r="0.4649609910836763" fill="#000000" cx="10.5" cy="21.5"></circle><circle opacity="1" r="0.17614047496570645" fill="#000000" cx="11.5" cy="21.5"></circle><circle opacity="1" r="0.456520061728395" fill="#000000" cx="14.5" cy="21.5"></circle><circle opacity="1" r="0.4170565414951989" fill="#000000" cx="15.5" cy="21.5"></circle><circle opacity="1" r="0.1668548525377229" fill="#000000" cx="22.5" cy="21.5"></circle><circle opacity="1" r="0.19094585905349792" fill="#000000" cx="24.5" cy="21.5"></circle><circle opacity="1" r="0.2613974622770919" fill="#000000" cx="8.5" cy="22.5"></circle><circle opacity="1" r="0.3317590449245542" fill="#000000" cx="9.5" cy="22.5"></circle><circle opacity="1" r="0.26483924897119343" fill="#000000" cx="15.5" cy="22.5"></circle><circle opacity="1" r="0.49381708676268854" fill="#000000" cx="16.5" cy="22.5"></circle><circle opacity="1" r="0.46668638545953356" fill="#000000" cx="20.5" cy="22.5"></circle><circle opacity="1" r="0.47403356481481485" fill="#000000" cx="22.5" cy="22.5"></circle><circle opacity="1" r="0.21014874828532235" fill="#000000" cx="8.5" cy="23.5"></circle><circle opacity="1" r="0.36747020747599446" fill="#000000" cx="9.5" cy="23.5"></circle><circle opacity="1" r="0.26436213991769547" fill="#000000" cx="10.5" cy="23.5"></circle><circle opacity="1" r="0.2562257801783265" fill="#000000" cx="13.5" cy="23.5"></circle><circle opacity="1" r="0.17994384430727023" fill="#000000" cx="14.5" cy="23.5"></circle><circle opacity="1" r="0.48165830761316863" fill="#000000" cx="19.5" cy="23.5"></circle><circle opacity="1" r="0.4278815157750343" fill="#000000" cx="21.5" cy="23.5"></circle><circle opacity="1" r="0.39994062928669405" fill="#000000" cx="10.5" cy="24.5"></circle><circle opacity="1" r="0.22175540123456788" fill="#000000" cx="11.5" cy="24.5"></circle><circle opacity="1" r="0.17094928840877915" fill="#000000" cx="12.5" cy="24.5"></circle><circle opacity="1" r="0.4732938957475994" fill="#000000" cx="14.5" cy="24.5"></circle><circle opacity="1" r="0.3304867541152263" fill="#000000" cx="15.5" cy="24.5"></circle><circle opacity="1" r="0.33126243141289435" fill="#000000" cx="18.5" cy="24.5"></circle><circle opacity="1" r="0.1958369770233196" fill="#000000" cx="19.5" cy="24.5"></circle><circle opacity="1" r="0.25368569958847736" fill="#000000" cx="20.5" cy="24.5"></circle><circle opacity="1" r="0.35465427812071326" fill="#000000" cx="21.5" cy="24.5"></circle><circle opacity="1" r="0.41340320644718787" fill="#000000" cx="22.5" cy="24.5"></circle><circle opacity="1" r="0.48718557098765425" fill="#000000" cx="23.5" cy="24.5"></circle><circle opacity="1" r="0.38695816186556925" fill="#000000" cx="24.5" cy="24.5"></circle></svg>