<?xml version="1.0" encoding="utf-8"?>
 <!DOCTYPE svg PUBLIC "-//W3C//DTD SVG 20010904//EN" "http://www.w3.org/TR/2001/REC-SVG-20010904/DTD/svg10.dtd">
<svg xmlns="http://www.w3.org/2000/svg" xmlns:xlink="http://www.w3.org/1999/xlink" viewBox="-5 -5 35 35" class="w-full bg-white" url="https://qr-ng.com" correct_level="medium" content_line_type="cross" positioning_point_type="square" positioning_point_color="#000000" content_point_scale="0.6" content_point_opacity="1" content_point_color="#000000"><circle opacity="1" r="0.39298167438271603" fill="#000000" cx="8.5" cy="0.5"></circle><circle opacity="1" r="0.2827799639917696" fill="#000000" cx="9.5" cy="0.5"></circle><line opacity="1" x1="12.5" y1="0.5" x2="14.5" y2="2.5" stroke-width="0.2938632973251029" stroke="#000000" stroke-linecap="round"></line><circle opacity="1" r="0.28294367283950617" fill="#000000" cx="12.5" cy="0.5"></circle><circle opacity="1" r="0.25432761059670783" fill="#000000" cx="13.5" cy="0.5"></circle><circle opacity="1" r="0.28633269032921815" fill="#000000" cx="14.5" cy="0.5"></circle><circle opacity="1" r="0.4255792824074074" fill="#000000" cx="15.5" cy="0.5"></circle><circle opacity="1" r="0.23313220164609055" fill="#000000" cx="16.5" cy="0.5"></circle><line opacity="1" x1="11.5" y1="1.5" x2="12.5" y2="2.5" stroke-width="0.2394566615226337" stroke="#000000" stroke-linecap="round"></line><circle opacity="1" r="0.36963850308641977" fill="#000000" cx="11.5" cy="1.5"></circle><circle opacity="1" r="0.3379437371399177" fill="#000000" cx="13.5" cy="1.5"></circle><line opacity="1" x1="10.5" y1="2.5" x2="11.5" y2="3.5" stroke-width="0.1415241769547325" stroke="#000000" stroke-linecap="round"></line><circle opacity="1" r="0.2338713348765432" fill="#000000" cx="10.5" cy="2.5"></circle><circle opacity="1" r="0.40251221707818935" fill="#000000" cx="12.5" cy="2.5"></circle><circle opacity="1" r="0.2913575745884774" fill="#000000" cx="13.5" cy="2.5"></circle><circle opacity="1" r="0.4220277777777778" fill="#000000" cx="14.5" cy="2.5"></circle><circle opacity="1" r="0.26058764146090535" fill="#000000" cx="16.5" cy="2.5"></circle><rect fill="#000000" x="2" y="2" width="3" height="3"></rect><rect fill="none" stroke-width="1" stroke="#000000" x="0.5" y="0.5" width="6" height="6"></rect><line opacity="1" x1="9.5" y1="3.5" x2="12.5" y2="0.5" stroke-width="0.24170087448559668" stroke="#000000" stroke-linecap="round"></line><circle opacity="1" r="0.19785783179012345" fill="#000000" cx="9.5" cy="3.5"></circle><line opacity="1" x1="10.5" y1="3.5" x2="11.5" y2="4.5" stroke-width="0.20120421810699585" stroke="#000000" stroke-linecap="round"></line><circle opacity="1" r="0.3072422196502058" fill="#000000" cx="10.5" cy="3.5"></circle><line opacity="1" x1="11.5" y1="3.5" x2="14.5" y2="0.5" stroke-width="0.15271373456790122" stroke="#000000" stroke-linecap="round"></line><circle opacity="1" r="0.4022593235596708" fill="#000000" cx="11.5" cy="3.5"></circle><circle opacity="1" r="0.21919495884773665" fill="#000000" cx="16.5" cy="3.5"></circle><rect fill="#000000" x="20" y="2" width="3" height="3"></rect><rect fill="none" stroke-width="1" stroke="#000000" x="18.5" y="0.5" width="6" height="6"></rect><circle opacity="1" r="0.4125387731481482" fill="#000000" cx="11.5" cy="4.5"></circle><line opacity="1" x1="15.5" y1="4.5" x2="16.5" y2="3.5" stroke-width="0.22878832304526747" stroke="#000000" stroke-linecap="round"></line><line opacity="1" x1="15.5" y1="4.5" x2="16.5" y2="5.5" stroke-width="0.13457008744855967" stroke="#000000" stroke-linecap="round"></line><circle opacity="1" r="0.23388966049382717" fill="#000000" cx="15.5" cy="4.5"></circle><circle opacity="1" r="0.287958783436214" fill="#000000" cx="16.5" cy="5.5"></circle><circle opacity="1" r="0.44487127057613174" fill="#000000" cx="8.5" cy="6.5"></circle><circle opacity="1" r="0.40291415895061733" fill="#000000" cx="10.5" cy="6.5"></circle><line opacity="1" x1="12.5" y1="6.5" x2="13.5" y2="7.5" stroke-width="0.20776131687242796" stroke="#000000" stroke-linecap="round"></line><circle opacity="1" r="0.42609484310699597" fill="#000000" cx="12.5" cy="6.5"></circle><circle opacity="1" r="0.18336226851851853" fill="#000000" cx="14.5" cy="6.5"></circle><circle opacity="1" r="0.297686021090535" fill="#000000" cx="16.5" cy="6.5"></circle><line opacity="1" x1="12.5" y1="7.5" x2="13.5" y2="8.5" stroke-width="0.1805643004115226" stroke="#000000" stroke-linecap="round"></line><circle opacity="1" r="0.26398398919753086" fill="#000000" cx="12.5" cy="7.5"></circle><circle opacity="1" r="0.3253100565843622" fill="#000000" cx="13.5" cy="7.5"></circle><circle opacity="1" r="0.43406282150205766" fill="#000000" cx="14.5" cy="7.5"></circle><line opacity="1" x1="16.5" y1="7.5" x2="17.5" y2="8.5" stroke-width="0.1110216049382716" stroke="#000000" stroke-linecap="round"></line><circle opacity="1" r="0.24144103652263377" fill="#000000" cx="16.5" cy="7.5"></circle><circle opacity="1" r="0.41330722736625514" fill="#000000" cx="1.5" cy="8.5"></circle><circle opacity="1" r="0.37574826388888893" fill="#000000" cx="2.5" cy="8.5"></circle><line opacity="1" x1="3.5" y1="8.5" x2="4.5" y2="9.5" stroke-width="0.2998739711934156" stroke="#000000" stroke-linecap="round"></line><circle opacity="1" r="0.34439191100823047" fill="#000000" cx="3.5" cy="8.5"></circle><line opacity="1" x1="6.5" y1="8.5" x2="8.5" y2="10.5" stroke-width="0.2332353395061728" stroke="#000000" stroke-linecap="round"></line><circle opacity="1" r="0.2142238297325103" fill="#000000" cx="6.5" cy="8.5"></circle><line opacity="1" x1="7.5" y1="8.5" x2="9.5" y2="10.5" stroke-width="0.223417695473251" stroke="#000000" stroke-linecap="round"></line><circle opacity="1" r="0.26320698302469137" fill="#000000" cx="7.5" cy="8.5"></circle><circle opacity="1" r="0.22337564300411525" fill="#000000" cx="8.5" cy="8.5"></circle><circle opacity="1" r="0.2520821116255144" fill="#000000" cx="9.5" cy="8.5"></circle><line opacity="1" x1="11.5" y1="8.5" x2="12.5" y2="7.5" stroke-width="0.12017129629629629" stroke="#000000" stroke-linecap="round"></line><circle opacity="1" r="0.31103440072016464" fill="#000000" cx="11.5" cy="8.5"></circle><line opacity="1" x1="12.5" y1="8.5" x2="14.5" y2="6.5" stroke-width="0.10192772633744855" stroke="#000000" stroke-linecap="round"></line><circle opacity="1" r="0.30636014660493827" fill="#000000" cx="12.5" cy="8.5"></circle><line opacity="1" x1="13.5" y1="8.5" x2="14.5" y2="7.5" stroke-width="0.19754218106995883" stroke="#000000" stroke-linecap="round"></line><circle opacity="1" r="0.2521334233539095" fill="#000000" cx="13.5" cy="8.5"></circle><circle opacity="1" r="0.39819714506172843" fill="#000000" cx="17.5" cy="8.5"></circle><circle opacity="1" r="0.34187274948559676" fill="#000000" cx="24.5" cy="8.5"></circle><line opacity="1" x1="0.5" y1="9.5" x2="1.5" y2="8.5" stroke-width="0.18849331275720163" stroke="#000000" stroke-linecap="round"></line><line opacity="1" x1="0.5" y1="9.5" x2="1.5" y2="10.5" stroke-width="0.2006793981481481" stroke="#000000" stroke-linecap="round"></line><circle opacity="1" r="0.23755234053497942" fill="#000000" cx="0.5" cy="9.5"></circle><circle opacity="1" r="0.43954584619341563" fill="#000000" cx="4.5" cy="9.5"></circle><line opacity="1" x1="5.5" y1="9.5" x2="12.5" y2="16.5" stroke-width="0.09820987654320987" stroke="#000000" stroke-linecap="round"></line><circle opacity="1" r="0.40173887602880665" fill="#000000" cx="5.5" cy="9.5"></circle><circle opacity="1" r="0.2235124742798354" fill="#000000" cx="7.5" cy="9.5"></circle><circle opacity="1" r="0.3847498070987655" fill="#000000" cx="8.5" cy="9.5"></circle><circle opacity="1" r="0.3831823559670782" fill="#000000" cx="15.5" cy="9.5"></circle><circle opacity="1" r="0.33931938014403296" fill="#000000" cx="17.5" cy="9.5"></circle><circle opacity="1" r="0.20478125000000003" fill="#000000" cx="20.5" cy="9.5"></circle><line opacity="1" x1="21.5" y1="9.5" x2="23.5" y2="11.5" stroke-width="0.18993994341563786" stroke="#000000" stroke-linecap="round"></line><circle opacity="1" r="0.3357165637860082" fill="#000000" cx="21.5" cy="9.5"></circle><line opacity="1" x1="23.5" y1="9.5" x2="24.5" y2="10.5" stroke-width="0.2078846450617284" stroke="#000000" stroke-linecap="round"></line><circle opacity="1" r="0.27284014917695476" fill="#000000" cx="23.5" cy="9.5"></circle><circle opacity="1" r="0.33145402520576134" fill="#000000" cx="24.5" cy="9.5"></circle><circle opacity="1" r="0.2941149691358025" fill="#000000" cx="1.5" cy="10.5"></circle><line opacity="1" x1="3.5" y1="10.5" x2="4.5" y2="9.5" stroke-width="0.276829603909465" stroke="#000000" stroke-linecap="round"></line><line opacity="1" x1="3.5" y1="10.5" x2="4.5" y2="11.5" stroke-width="0.2965234053497942" stroke="#000000" stroke-linecap="round"></line><circle opacity="1" r="0.2309172453703704" fill="#000000" cx="3.5" cy="10.5"></circle><circle opacity="1" r="0.2865257201646091" fill="#000000" cx="4.5" cy="10.5"></circle><line opacity="1" x1="6.5" y1="10.5" x2="8.5" y2="8.5" stroke-width="0.13491036522633743" stroke="#000000" stroke-linecap="round"></line><circle opacity="1" r="0.2541431327160494" fill="#000000" cx="6.5" cy="10.5"></circle><line opacity="1" x1="7.5" y1="10.5" x2="9.5" y2="8.5" stroke-width="0.17510815329218102" stroke="#000000" stroke-linecap="round"></line><circle opacity="1" r="0.36220807613168726" fill="#000000" cx="7.5" cy="10.5"></circle><circle opacity="1" r="0.19754263117283952" fill="#000000" cx="8.5" cy="10.5"></circle><circle opacity="1" r="0.23423906893004115" fill="#000000" cx="9.5" cy="10.5"></circle><circle opacity="1" r="0.4028066486625515" fill="#000000" cx="12.5" cy="10.5"></circle><line opacity="1" x1="14.5" y1="10.5" x2="15.5" y2="9.5" stroke-width="0.1009537037037037" stroke="#000000" stroke-linecap="round"></line><line opacity="1" x1="14.5" y1="10.5" x2="15.5" y2="11.5" stroke-width="0.164775591563786" stroke="#000000" stroke-linecap="round"></line><circle opacity="1" r="0.18149549897119344" fill="#000000" cx="14.5" cy="10.5"></circle><circle opacity="1" r="0.3198624614197531" fill="#000000" cx="19.5" cy="10.5"></circle><line opacity="1" x1="22.5" y1="10.5" x2="24.5" y2="8.5" stroke-width="0.1238801440329218" stroke="#000000" stroke-linecap="round"></line><circle opacity="1" r="0.3870246270576132" fill="#000000" cx="22.5" cy="10.5"></circle><circle opacity="1" r="0.16628279320987654" fill="#000000" cx="23.5" cy="10.5"></circle><circle opacity="1" r="0.18648617541152265" fill="#000000" cx="24.5" cy="10.5"></circle><line opacity="1" x1="0.5" y1="11.5" x2="1.5" y2="10.5" stroke-width="0.1770534979423868" stroke="#000000" stroke-linecap="round"></line><circle opacity="1" r="0.40787673611111114" fill="#000000" cx="0.5" cy="11.5"></circle><line opacity="1" x1="3.5" y1="11.5" x2="4.5" y2="12.5" stroke-width="0.1981309156378601" stroke="#000000" stroke-linecap="round"></line><circle opacity="1" r="0.273603716563786" fill="#000000" cx="3.5" cy="11.5"></circle><circle opacity="1" r="0.3083942901234568" fill="#000000" cx="4.5" cy="11.5"></circle><circle opacity="1" r="0.42051896862139926" fill="#000000" cx="7.5" cy="11.5"></circle><line opacity="1" x1="11.5" y1="11.5" x2="12.5" y2="12.5" stroke-width="0.1100079732510288" stroke="#000000" stroke-linecap="round"></line><circle opacity="1" r="0.2715854552469136" fill="#000000" cx="11.5" cy="11.5"></circle><circle opacity="1" r="0.3465457818930041" fill="#000000" cx="12.5" cy="11.5"></circle><circle opacity="1" r="0.44254391718107" fill="#000000" cx="14.5" cy="11.5"></circle><circle opacity="1" r="0.41620023148148155" fill="#000000" cx="15.5" cy="11.5"></circle><line opacity="1" x1="16.5" y1="11.5" x2="17.5" y2="12.5" stroke-width="0.12211123971193415" stroke="#000000" stroke-linecap="round"></line><circle opacity="1" r="0.28852443415637863" fill="#000000" cx="16.5" cy="11.5"></circle><line opacity="1" x1="18.5" y1="11.5" x2="19.5" y2="12.5" stroke-width="0.18283371913580243" stroke="#000000" stroke-linecap="round"></line><circle opacity="1" r="0.4103702417695474" fill="#000000" cx="18.5" cy="11.5"></circle><line opacity="1" x1="22.5" y1="11.5" x2="24.5" y2="9.5" stroke-width="0.2770438528806584" stroke="#000000" stroke-linecap="round"></line><circle opacity="1" r="0.29970061728395064" fill="#000000" cx="22.5" cy="11.5"></circle><circle opacity="1" r="0.2156678883744856" fill="#000000" cx="23.5" cy="11.5"></circle><circle opacity="1" r="0.38225630144032924" fill="#000000" cx="2.5" cy="12.5"></circle><circle opacity="1" r="0.27608622685185186" fill="#000000" cx="4.5" cy="12.5"></circle><line opacity="1" x1="6.5" y1="12.5" x2="8.5" y2="10.5" stroke-width="0.19921656378600822" stroke="#000000" stroke-linecap="round"></line><circle opacity="1" r="0.2975076517489712" fill="#000000" cx="6.5" cy="12.5"></circle><circle opacity="1" r="0.3388954475308642" fill="#000000" cx="8.5" cy="12.5"></circle><line opacity="1" x1="9.5" y1="12.5" x2="10.5" y2="13.5" stroke-width="0.153946116255144" stroke="#000000" stroke-linecap="round"></line><circle opacity="1" r="0.28334927983539093" fill="#000000" cx="9.5" cy="12.5"></circle><line opacity="1" x1="10.5" y1="12.5" x2="11.5" y2="13.5" stroke-width="0.20559452160493827" stroke="#000000" stroke-linecap="round"></line><circle opacity="1" r="0.4351024948559671" fill="#000000" cx="10.5" cy="12.5"></circle><line opacity="1" x1="11.5" y1="12.5" x2="12.5" y2="13.5" stroke-width="0.09628613683127572" stroke="#000000" stroke-linecap="round"></line><circle opacity="1" r="0.3437847222222222" fill="#000000" cx="11.5" cy="12.5"></circle><circle opacity="1" r="0.41192791923868316" fill="#000000" cx="12.5" cy="12.5"></circle><line opacity="1" x1="14.5" y1="12.5" x2="15.5" y2="11.5" stroke-width="0.24238143004115223" stroke="#000000" stroke-linecap="round"></line><circle opacity="1" r="0.23836477623456792" fill="#000000" cx="14.5" cy="12.5"></circle><line opacity="1" x1="17.5" y1="12.5" x2="20.5" y2="9.5" stroke-width="0.19021810699588476" stroke="#000000" stroke-linecap="round"></line><circle opacity="1" r="0.4269158307613169" fill="#000000" cx="17.5" cy="12.5"></circle><circle opacity="1" r="0.40936844135802475" fill="#000000" cx="19.5" cy="12.5"></circle><circle opacity="1" r="0.22109960133744858" fill="#000000" cx="20.5" cy="12.5"></circle><line opacity="1" x1="22.5" y1="12.5" x2="24.5" y2="10.5" stroke-width="0.095613683127572" stroke="#000000" stroke-linecap="round"></line><circle opacity="1" r="0.4055457175925926" fill="#000000" cx="22.5" cy="12.5"></circle><circle opacity="1" r="0.29094585905349796" fill="#000000" cx="1.5" cy="13.5"></circle><circle opacity="1" r="0.2976615869341564" fill="#000000" cx="2.5" cy="13.5"></circle><line opacity="1" x1="9.5" y1="13.5" x2="12.5" y2="10.5" stroke-width="0.22310802469135801" stroke="#000000" stroke-linecap="round"></line><circle opacity="1" r="0.3442990612139918" fill="#000000" cx="9.5" cy="13.5"></circle><line opacity="1" x1="10.5" y1="13.5" x2="12.5" y2="11.5" stroke-width="0.22690149176954727" stroke="#000000" stroke-linecap="round"></line><circle opacity="1" r="0.3484211033950617" fill="#000000" cx="10.5" cy="13.5"></circle><circle opacity="1" r="0.21490920781893005" fill="#000000" cx="11.5" cy="13.5"></circle><circle opacity="1" r="0.16576845421810701" fill="#000000" cx="12.5" cy="13.5"></circle><circle opacity="1" r="0.24761921296296296" fill="#000000" cx="17.5" cy="13.5"></circle><line opacity="1" x1="19.5" y1="13.5" x2="20.5" y2="12.5" stroke-width="0.19428253600823045" stroke="#000000" stroke-linecap="round"></line><line opacity="1" x1="19.5" y1="13.5" x2="21.5" y2="15.5" stroke-width="0.28624485596707816" stroke="#000000" stroke-linecap="round"></line><circle opacity="1" r="0.4469909336419754" fill="#000000" cx="19.5" cy="13.5"></circle><circle opacity="1" r="0.1679003343621399" fill="#000000" cx="24.5" cy="13.5"></circle><line opacity="1" x1="0.5" y1="14.5" x2="6.5" y2="8.5" stroke-width="0.27143737139917695" stroke="#000000" stroke-linecap="round"></line><circle opacity="1" r="0.21028626543209877" fill="#000000" cx="0.5" cy="14.5"></circle><line opacity="1" x1="1.5" y1="14.5" x2="3.5" y2="16.5" stroke-width="0.11783886316872427" stroke="#000000" stroke-linecap="round"></line><circle opacity="1" r="0.22423083847736627" fill="#000000" cx="1.5" cy="14.5"></circle><line opacity="1" x1="6.5" y1="14.5" x2="7.5" y2="15.5" stroke-width="0.13513541666666667" stroke="#000000" stroke-linecap="round"></line><circle opacity="1" r="0.2449192386831276" fill="#000000" cx="6.5" cy="14.5"></circle><circle opacity="1" r="0.2740655221193416" fill="#000000" cx="7.5" cy="14.5"></circle><circle opacity="1" r="0.32864776234567905" fill="#000000" cx="10.5" cy="14.5"></circle><circle opacity="1" r="0.4130641075102881" fill="#000000" cx="17.5" cy="14.5"></circle><circle opacity="1" r="0.39449048353909466" fill="#000000" cx="20.5" cy="14.5"></circle><circle opacity="1" r="0.3512139274691358" fill="#000000" cx="21.5" cy="14.5"></circle><line opacity="1" x1="23.5" y1="14.5" x2="24.5" y2="13.5" stroke-width="0.15702752057613167" stroke="#000000" stroke-linecap="round"></line><circle opacity="1" r="0.4192557227366256" fill="#000000" cx="23.5" cy="14.5"></circle><circle opacity="1" r="0.41270370370370374" fill="#000000" cx="24.5" cy="14.5"></circle><line opacity="1" x1="0.5" y1="15.5" x2="2.5" y2="13.5" stroke-width="0.09911818415637859" stroke="#000000" stroke-linecap="round"></line><line opacity="1" x1="0.5" y1="15.5" x2="1.5" y2="16.5" stroke-width="0.10260828189300411" stroke="#000000" stroke-linecap="round"></line><circle opacity="1" r="0.34686709104938274" fill="#000000" cx="0.5" cy="15.5"></circle><circle opacity="1" r="0.29604038065843624" fill="#000000" cx="2.5" cy="15.5"></circle><line opacity="1" x1="3.5" y1="15.5" x2="4.5" y2="16.5" stroke-width="0.24238413065843617" stroke="#000000" stroke-linecap="round"></line><circle opacity="1" r="0.27245408950617284" fill="#000000" cx="3.5" cy="15.5"></circle><circle opacity="1" r="0.4457130272633745" fill="#000000" cx="7.5" cy="15.5"></circle><line opacity="1" x1="9.5" y1="15.5" x2="12.5" y2="12.5" stroke-width="0.15417386831275717" stroke="#000000" stroke-linecap="round"></line><line opacity="1" x1="9.5" y1="15.5" x2="10.5" y2="16.5" stroke-width="0.19552662037037036" stroke="#000000" stroke-linecap="round"></line><circle opacity="1" r="0.1751426183127572" fill="#000000" cx="9.5" cy="15.5"></circle><circle opacity="1" r="0.22671945730452675" fill="#000000" cx="10.5" cy="15.5"></circle><circle opacity="1" r="0.28789891975308646" fill="#000000" cx="11.5" cy="15.5"></circle><line opacity="1" x1="12.5" y1="15.5" x2="17.5" y2="20.5" stroke-width="0.09595306069958846" stroke="#000000" stroke-linecap="round"></line><circle opacity="1" r="0.41443608539094656" fill="#000000" cx="12.5" cy="15.5"></circle><circle opacity="1" r="0.3302567515432099" fill="#000000" cx="13.5" cy="15.5"></circle><circle opacity="1" r="0.273272633744856" fill="#000000" cx="14.5" cy="15.5"></circle><line opacity="1" x1="15.5" y1="15.5" x2="16.5" y2="16.5" stroke-width="0.2366264146090535" stroke="#000000" stroke-linecap="round"></line><circle opacity="1" r="0.26903819444444443" fill="#000000" cx="15.5" cy="15.5"></circle><circle opacity="1" r="0.30947305812757203" fill="#000000" cx="20.5" cy="15.5"></circle><circle opacity="1" r="0.19414017489711935" fill="#000000" cx="21.5" cy="15.5"></circle><circle opacity="1" r="0.22299324845679014" fill="#000000" cx="0.5" cy="16.5"></circle><line opacity="1" x1="1.5" y1="16.5" x2="2.5" y2="15.5" stroke-width="0.2634750514403292" stroke="#000000" stroke-linecap="round"></line><circle opacity="1" r="0.30862763631687246" fill="#000000" cx="1.5" cy="16.5"></circle><line opacity="1" x1="2.5" y1="16.5" x2="3.5" y2="15.5" stroke-width="0.19748456790123456" stroke="#000000" stroke-linecap="round"></line><circle opacity="1" r="0.3798947402263375" fill="#000000" cx="2.5" cy="16.5"></circle><circle opacity="1" r="0.2562053755144033" fill="#000000" cx="3.5" cy="16.5"></circle><circle opacity="1" r="0.36642418981481484" fill="#000000" cx="4.5" cy="16.5"></circle><circle opacity="1" r="0.36661599794238686" fill="#000000" cx="5.5" cy="16.5"></circle><line opacity="1" x1="6.5" y1="16.5" x2="7.5" y2="15.5" stroke-width="0.293090920781893" stroke="#000000" stroke-linecap="round"></line><circle opacity="1" r="0.22340007716049384" fill="#000000" cx="6.5" cy="16.5"></circle><line opacity="1" x1="7.5" y1="16.5" x2="8.5" y2="17.5" stroke-width="0.11162204218106994" stroke="#000000" stroke-linecap="round"></line><circle opacity="1" r="0.4106316872427984" fill="#000000" cx="7.5" cy="16.5"></circle><circle opacity="1" r="0.28554957561728395" fill="#000000" cx="10.5" cy="16.5"></circle><line opacity="1" x1="12.5" y1="16.5" x2="13.5" y2="15.5" stroke-width="0.1650321502057613" stroke="#000000" stroke-linecap="round"></line><circle opacity="1" r="0.2849802597736626" fill="#000000" cx="12.5" cy="16.5"></circle><circle opacity="1" r="0.3866226851851852" fill="#000000" cx="13.5" cy="16.5"></circle><circle opacity="1" r="0.4178214377572017" fill="#000000" cx="16.5" cy="16.5"></circle><circle opacity="1" r="0.18241911008230455" fill="#000000" cx="17.5" cy="16.5"></circle><circle opacity="1" r="0.3603694058641976" fill="#000000" cx="18.5" cy="16.5"></circle><line opacity="1" x1="19.5" y1="16.5" x2="21.5" y2="14.5" stroke-width="0.11289403292181069" stroke="#000000" stroke-linecap="round"></line><line opacity="1" x1="19.5" y1="16.5" x2="21.5" y2="18.5" stroke-width="0.13177764917695473" stroke="#000000" stroke-linecap="round"></line><circle opacity="1" r="0.325539737654321" fill="#000000" cx="19.5" cy="16.5"></circle><line opacity="1" x1="20.5" y1="16.5" x2="21.5" y2="15.5" stroke-width="0.18234580761316874" stroke="#000000" stroke-linecap="round"></line><line opacity="1" x1="20.5" y1="16.5" x2="21.5" y2="17.5" stroke-width="0.14273405349794235" stroke="#000000" stroke-linecap="round"></line><circle opacity="1" r="0.40088368055555557" fill="#000000" cx="20.5" cy="16.5"></circle><line opacity="1" x1="23.5" y1="16.5" x2="24.5" y2="17.5" stroke-width="0.15214480452674894" stroke="#000000" stroke-linecap="round"></line><circle opacity="1" r="0.3457773276748971" fill="#000000" cx="23.5" cy="16.5"></circle><circle opacity="1" r="0.42015123456790127" fill="#000000" cx="24.5" cy="16.5"></circle><circle opacity="1" r="0.19185924639917695" fill="#000000" cx="8.5" cy="17.5"></circle><line opacity="1" x1="9.5" y1="17.5" x2="10.5" y2="18.5" stroke-width="0.2506885288065843" stroke="#000000" stroke-linecap="round"></line><circle opacity="1" r="0.21709239969135805" fill="#000000" cx="9.5" cy="17.5"></circle><line opacity="1" x1="12.5" y1="17.5" x2="14.5" y2="15.5" stroke-width="0.14278446502057612" stroke="#000000" stroke-linecap="round"></line><circle opacity="1" r="0.18221752829218107" fill="#000000" cx="12.5" cy="17.5"></circle><circle opacity="1" r="0.19545717592592593" fill="#000000" cx="14.5" cy="17.5"></circle><line opacity="1" x1="15.5" y1="17.5" x2="16.5" y2="16.5" stroke-width="0.12862512860082304" stroke="#000000" stroke-linecap="round"></line><line opacity="1" x1="15.5" y1="17.5" x2="16.5" y2="18.5" stroke-width="0.2866985596707819" stroke="#000000" stroke-linecap="round"></line><circle opacity="1" r="0.18899556327160494" fill="#000000" cx="15.5" cy="17.5"></circle><circle opacity="1" r="0.2529605195473251" fill="#000000" cx="16.5" cy="17.5"></circle><circle opacity="1" r="0.3960188400205762" fill="#000000" cx="20.5" cy="17.5"></circle><circle opacity="1" r="0.31645756172839506" fill="#000000" cx="21.5" cy="17.5"></circle><line opacity="1" x1="23.5" y1="17.5" x2="24.5" y2="16.5" stroke-width="0.09884812242798353" stroke="#000000" stroke-linecap="round"></line><circle opacity="1" r="0.19317991255144035" fill="#000000" cx="23.5" cy="17.5"></circle><circle opacity="1" r="0.41159317129629636" fill="#000000" cx="24.5" cy="17.5"></circle><line opacity="1" x1="8.5" y1="18.5" x2="11.5" y2="15.5" stroke-width="0.2582304526748971" stroke="#000000" stroke-linecap="round"></line><line opacity="1" x1="8.5" y1="18.5" x2="9.5" y2="19.5" stroke-width="0.13581777263374487" stroke="#000000" stroke-linecap="round"></line><circle opacity="1" r="0.30815239197530864" fill="#000000" cx="8.5" cy="18.5"></circle><circle opacity="1" r="0.16562429269547327" fill="#000000" cx="10.5" cy="18.5"></circle><line opacity="1" x1="12.5" y1="18.5" x2="16.5" y2="22.5" stroke-width="0.21288528806584361" stroke="#000000" stroke-linecap="round"></line><circle opacity="1" r="0.4098852237654321" fill="#000000" cx="12.5" cy="18.5"></circle><circle opacity="1" r="0.18269277263374487" fill="#000000" cx="15.5" cy="18.5"></circle><circle opacity="1" r="0.3407047968106996" fill="#000000" cx="16.5" cy="18.5"></circle><circle opacity="1" r="0.2655416666666667" fill="#000000" cx="18.5" cy="18.5"></circle><line opacity="1" x1="20.5" y1="18.5" x2="21.5" y2="17.5" stroke-width="0.17346077674897117" stroke="#000000" stroke-linecap="round"></line><circle opacity="1" r="0.37272698045267494" fill="#000000" cx="20.5" cy="18.5"></circle><circle opacity="1" r="0.27887172067901234" fill="#000000" cx="21.5" cy="18.5"></circle><line opacity="1" x1="9.5" y1="19.5" x2="10.5" y2="18.5" stroke-width="0.17923199588477365" stroke="#000000" stroke-linecap="round"></line><circle opacity="1" r="0.261589441872428" fill="#000000" cx="9.5" cy="19.5"></circle><circle opacity="1" r="0.28362538580246915" fill="#000000" cx="10.5" cy="19.5"></circle><circle opacity="1" r="0.32493987911522637" fill="#000000" cx="13.5" cy="19.5"></circle><line opacity="1" x1="14.5" y1="19.5" x2="17.5" y2="16.5" stroke-width="0.2712942386831275" stroke="#000000" stroke-linecap="round"></line><circle opacity="1" r="0.3985526620370371" fill="#000000" cx="14.5" cy="19.5"></circle><line opacity="1" x1="15.5" y1="19.5" x2="16.5" y2="20.5" stroke-width="0.13681610082304527" stroke="#000000" stroke-linecap="round"></line><circle opacity="1" r="0.36983519804526754" fill="#000000" cx="15.5" cy="19.5"></circle><circle opacity="1" r="0.17240354938271607" fill="#000000" cx="16.5" cy="19.5"></circle><circle opacity="1" r="0.4006393389917696" fill="#000000" cx="20.5" cy="19.5"></circle><circle opacity="1" r="0.2567184927983539" fill="#000000" cx="23.5" cy="19.5"></circle><line opacity="1" x1="9.5" y1="20.5" x2="10.5" y2="21.5" stroke-width="0.18499961419753083" stroke="#000000" stroke-linecap="round"></line><circle opacity="1" r="0.38999948559670783" fill="#000000" cx="9.5" cy="20.5"></circle><line opacity="1" x1="14.5" y1="20.5" x2="16.5" y2="18.5" stroke-width="0.10874678497942386" stroke="#000000" stroke-linecap="round"></line><circle opacity="1" r="0.31187615740740743" fill="#000000" cx="14.5" cy="20.5"></circle><circle opacity="1" r="0.3153665766460906" fill="#000000" cx="16.5" cy="20.5"></circle><circle opacity="1" r="0.2897559156378601" fill="#000000" cx="17.5" cy="20.5"></circle><circle opacity="1" r="0.3449978780864198" fill="#000000" cx="18.5" cy="20.5"></circle><line opacity="1" x1="19.5" y1="20.5" x2="21.5" y2="18.5" stroke-width="0.18615097736625513" stroke="#000000" stroke-linecap="round"></line><circle opacity="1" r="0.3884100437242799" fill="#000000" cx="19.5" cy="20.5"></circle><circle opacity="1" r="0.22704320987654322" fill="#000000" cx="20.5" cy="20.5"></circle><line opacity="1" x1="23.5" y1="20.5" x2="24.5" y2="21.5" stroke-width="0.29935275205761314" stroke="#000000" stroke-linecap="round"></line><circle opacity="1" r="0.3201544495884774" fill="#000000" cx="23.5" cy="20.5"></circle><rect fill="#000000" x="2" y="20" width="3" height="3"></rect><rect fill="none" stroke-width="1" stroke="#000000" x="0.5" y="18.5" width="6" height="6"></rect><line opacity="1" x1="8.5" y1="21.5" x2="10.5" y2="19.5" stroke-width="0.23498263888888887" stroke="#000000" stroke-linecap="round"></line><line opacity="1" x1="8.5" y1="21.5" x2="11.5" y2="24.5" stroke-width="0.20790174897119337" stroke="#000000" stroke-linecap="round"></line><circle opacity="1" r="0.20373913323045267" fill="#000000" cx="8.5" cy="21.5"></circle><circle opacity="1" r="0.2979047067901235" fill="#000000" cx="9.5" cy="21.5"></circle><circle opacity="1" r="0.32690438528806587" fill="#000000" cx="10.5" cy="21.5"></circle><circle opacity="1" r="0.4429140946502058" fill="#000000" cx="11.5" cy="21.5"></circle><line opacity="1" x1="14.5" y1="21.5" x2="15.5" y2="22.5" stroke-width="0.2920574845679012" stroke="#000000" stroke-linecap="round"></line><circle opacity="1" r="0.2885561985596708" fill="#000000" cx="14.5" cy="21.5"></circle><line opacity="1" x1="15.5" y1="21.5" x2="16.5" y2="20.5" stroke-width="0.19052687757201642" stroke="#000000" stroke-linecap="round"></line><circle opacity="1" r="0.3344606481481482" fill="#000000" cx="15.5" cy="21.5"></circle><line opacity="1" x1="22.5" y1="21.5" x2="23.5" y2="20.5" stroke-width="0.2106320730452675" stroke="#000000" stroke-linecap="round"></line><circle opacity="1" r="0.18303485082304527" fill="#000000" cx="22.5" cy="21.5"></circle><circle opacity="1" r="0.3873740354938272" fill="#000000" cx="24.5" cy="21.5"></circle><line opacity="1" x1="8.5" y1="22.5" x2="9.5" y2="21.5" stroke-width="0.1755699588477366" stroke="#000000" stroke-linecap="round"></line><line opacity="1" x1="8.5" y1="22.5" x2="10.5" y2="24.5" stroke-width="0.12056468621399176" stroke="#000000" stroke-linecap="round"></line><circle opacity="1" r="0.4317110339506174" fill="#000000" cx="8.5" cy="22.5"></circle><circle opacity="1" r="0.26455330504115226" fill="#000000" cx="9.5" cy="22.5"></circle><circle opacity="1" r="0.2055167181069959" fill="#000000" cx="15.5" cy="22.5"></circle><circle opacity="1" r="0.30122164351851854" fill="#000000" cx="16.5" cy="22.5"></circle><line opacity="1" x1="20.5" y1="22.5" x2="22.5" y2="24.5" stroke-width="0.26148739711934155" stroke="#000000" stroke-linecap="round"></line><circle opacity="1" r="0.2988930684156379" fill="#000000" cx="20.5" cy="22.5"></circle><circle opacity="1" r="0.3996558641975309" fill="#000000" cx="22.5" cy="22.5"></circle><line opacity="1" x1="8.5" y1="23.5" x2="10.5" y2="21.5" stroke-width="0.13746694958847736" stroke="#000000" stroke-linecap="round"></line><circle opacity="1" r="0.32035969650205764" fill="#000000" cx="8.5" cy="23.5"></circle><circle opacity="1" r="0.2757636959876544" fill="#000000" cx="9.5" cy="23.5"></circle><circle opacity="1" r="0.44836291152263374" fill="#000000" cx="10.5" cy="23.5"></circle><line opacity="1" x1="13.5" y1="23.5" x2="14.5" y2="24.5" stroke-width="0.254806970164609" stroke="#000000" stroke-linecap="round"></line><circle opacity="1" r="0.3332951388888889" fill="#000000" cx="13.5" cy="23.5"></circle><line opacity="1" x1="14.5" y1="23.5" x2="15.5" y2="22.5" stroke-width="0.20296772119341563" stroke="#000000" stroke-linecap="round"></line><line opacity="1" x1="14.5" y1="23.5" x2="15.5" y2="24.5" stroke-width="0.2171522633744856" stroke="#000000" stroke-linecap="round"></line><circle opacity="1" r="0.40600019290123457" fill="#000000" cx="14.5" cy="23.5"></circle><line opacity="1" x1="19.5" y1="23.5" x2="20.5" y2="24.5" stroke-width="0.1474889403292181" stroke="#000000" stroke-linecap="round"></line><circle opacity="1" r="0.2858012474279836" fill="#000000" cx="19.5" cy="23.5"></circle><circle opacity="1" r="0.3276288580246914" fill="#000000" cx="21.5" cy="23.5"></circle><circle opacity="1" r="0.34123501800411526" fill="#000000" cx="10.5" cy="24.5"></circle><circle opacity="1" r="0.3521289866255144" fill="#000000" cx="11.5" cy="24.5"></circle><line opacity="1" x1="12.5" y1="24.5" x2="13.5" y2="23.5" stroke-width="0.1282650462962963" stroke="#000000" stroke-linecap="round"></line><circle opacity="1" r="0.44670627572016464" fill="#000000" cx="12.5" cy="24.5"></circle><circle opacity="1" r="0.37029700360082307" fill="#000000" cx="14.5" cy="24.5"></circle><circle opacity="1" r="0.19265702160493828" fill="#000000" cx="15.5" cy="24.5"></circle><line opacity="1" x1="18.5" y1="24.5" x2="20.5" y2="22.5" stroke-width="0.25813593106995886" stroke="#000000" stroke-linecap="round"></line><circle opacity="1" r="0.17405529835390948" fill="#000000" cx="18.5" cy="24.5"></circle><circle opacity="1" r="0.3735565200617284" fill="#000000" cx="19.5" cy="24.5"></circle><line opacity="1" x1="20.5" y1="24.5" x2="22.5" y2="22.5" stroke-width="0.18904603909465018" stroke="#000000" stroke-linecap="round"></line><circle opacity="1" r="0.16715387088477368" fill="#000000" cx="20.5" cy="24.5"></circle><circle opacity="1" r="0.30837962962962967" fill="#000000" cx="21.5" cy="24.5"></circle><circle opacity="1" r="0.2841617155349795" fill="#000000" cx="22.5" cy="24.5"></circle><circle opacity="1" r="0.18334272119341566" fill="#000000" cx="23.5" cy="24.5"></circle><circle opacity="1" r="0.400876350308642" fill="#000000" cx="24.5" cy="24.5"></circle></svg>